<svg viewBox="0 0 32 32" xmlns="http://www.w3.org/2000/svg">
    <!-- Larger R -->
    <path d="M6 2 L6 30 L11 30 L11 18 L15 18 L23 30 L29 30 L20 17 C25 15 27 12 27 8 C27 4 24 2 19 2 Z M11 7 L19 7 C22 7 22 8 22 10 C22 12 22 13 19 13 L11 13 Z" fill="black"/>
    
    <!-- Round gear -->
    <circle cx="23" cy="23" r="6" fill="#666"/>
    <path d="M23 17 L24.5 17.5 L23 19 M23 29 L21.5 28.5 L23 27 M17 23 L17.5 21.5 L19 23 M29 23 L28.5 24.5 L27 23" fill="#444"/>
    <path d="M19 19 L20 18 L21 19.5 M27 27 L26 28 L24.5 27 M19 27 L18 26 L19.5 24.5 M27 19 L28 20 L26.5 21.5" fill="#444"/>
    
    <!-- Center -->
    <circle cx="23" cy="23" r="1.5" fill="#444"/>
</svg>